<svg width="827" height="161" viewBox="0 0 827 161" fill="none" xmlns="http://www.w3.org/2000/svg">
<path d="M195.36 76.6C198.68 76.6 201.6 76.16 204.12 75.28C206.68 74.4 208.82 73.18 210.54 71.62C212.3 70.02 213.62 68.12 214.5 65.92C215.38 63.72 215.82 61.3 215.82 58.66C215.82 53.18 214.12 48.9 210.72 45.82C207.36 42.74 202.24 41.2 195.36 41.2H181.56V76.6H195.36ZM195.36 32.02C200.8 32.02 205.52 32.66 209.52 33.94C213.56 35.18 216.9 36.96 219.54 39.28C222.18 41.6 224.14 44.4 225.42 47.68C226.74 50.96 227.4 54.62 227.4 58.66C227.4 62.66 226.7 66.32 225.3 69.64C223.9 72.96 221.84 75.82 219.12 78.22C216.44 80.62 213.1 82.5 209.1 83.86C205.14 85.18 200.56 85.84 195.36 85.84H181.56V118H169.98V32.02H195.36ZM283.15 56.26C287.59 56.26 291.59 57 295.15 58.48C298.71 59.96 301.75 62.06 304.27 64.78C306.79 67.5 308.71 70.8 310.03 74.68C311.39 78.52 312.07 82.82 312.07 87.58C312.07 92.38 311.39 96.7 310.03 100.54C308.71 104.38 306.79 107.66 304.27 110.38C301.75 113.1 298.71 115.2 295.15 116.68C291.59 118.12 287.59 118.84 283.15 118.84C278.67 118.84 274.63 118.12 271.03 116.68C267.47 115.2 264.43 113.1 261.91 110.38C259.39 107.66 257.45 104.38 256.09 100.54C254.77 96.7 254.11 92.38 254.11 87.58C254.11 82.82 254.77 78.52 256.09 74.68C257.45 70.8 259.39 67.5 261.91 64.78C264.43 62.06 267.47 59.96 271.03 58.48C274.63 57 278.67 56.26 283.15 56.26ZM283.15 110.5C289.15 110.5 293.63 108.5 296.59 104.5C299.55 100.46 301.03 94.84 301.03 87.64C301.03 80.4 299.55 74.76 296.59 70.72C293.63 66.68 289.15 64.66 283.15 64.66C280.11 64.66 277.45 65.18 275.17 66.22C272.93 67.26 271.05 68.76 269.53 70.72C268.05 72.68 266.93 75.1 266.17 77.98C265.45 80.82 265.09 84.04 265.09 87.64C265.09 94.84 266.57 100.46 269.53 104.5C272.53 108.5 277.07 110.5 283.15 110.5ZM354.356 29.62V81.64H357.116C357.916 81.64 358.576 81.54 359.096 81.34C359.656 81.1 360.236 80.64 360.836 79.96L380.036 59.38C380.596 58.7 381.176 58.18 381.776 57.82C382.416 57.42 383.256 57.22 384.296 57.22H393.956L371.576 81.04C370.496 82.4 369.336 83.46 368.096 84.22C368.816 84.7 369.456 85.26 370.016 85.9C370.616 86.5 371.176 87.2 371.696 88L395.456 118H385.916C384.996 118 384.196 117.86 383.516 117.58C382.876 117.26 382.316 116.7 381.836 115.9L361.856 91C361.256 90.16 360.656 89.62 360.056 89.38C359.496 89.1 358.616 88.96 357.416 88.96H354.356V118H343.616V29.62H354.356ZM463.234 80.98C463.234 78.5 462.874 76.24 462.154 74.2C461.474 72.12 460.454 70.34 459.094 68.86C457.774 67.34 456.154 66.18 454.234 65.38C452.314 64.54 450.134 64.12 447.694 64.12C442.574 64.12 438.514 65.62 435.514 68.62C432.554 71.58 430.714 75.7 429.994 80.98H463.234ZM471.874 109.48C470.554 111.08 468.974 112.48 467.134 113.68C465.294 114.84 463.314 115.8 461.194 116.56C459.114 117.32 456.954 117.88 454.714 118.24C452.474 118.64 450.254 118.84 448.054 118.84C443.854 118.84 439.974 118.14 436.414 116.74C432.894 115.3 429.834 113.22 427.234 110.5C424.674 107.74 422.674 104.34 421.234 100.3C419.794 96.26 419.074 91.62 419.074 86.38C419.074 82.14 419.714 78.18 420.994 74.5C422.314 70.82 424.194 67.64 426.634 64.96C429.074 62.24 432.054 60.12 435.574 58.6C439.094 57.04 443.054 56.26 447.454 56.26C451.094 56.26 454.454 56.88 457.534 58.12C460.654 59.32 463.334 61.08 465.574 63.4C467.854 65.68 469.634 68.52 470.914 71.92C472.194 75.28 472.834 79.12 472.834 83.44C472.834 85.12 472.654 86.24 472.294 86.8C471.934 87.36 471.254 87.64 470.254 87.64H429.634C429.754 91.48 430.274 94.82 431.194 97.66C432.154 100.5 433.474 102.88 435.154 104.8C436.834 106.68 438.834 108.1 441.154 109.06C443.474 109.98 446.074 110.44 448.954 110.44C451.634 110.44 453.934 110.14 455.854 109.54C457.814 108.9 459.494 108.22 460.894 107.5C462.294 106.78 463.454 106.12 464.374 105.52C465.334 104.88 466.154 104.56 466.834 104.56C467.714 104.56 468.394 104.9 468.874 105.58L471.874 109.48ZM555.252 108.22V118H506.472V32.02H518.052V108.22H555.252ZM594.873 57.22V118H584.193V57.22H594.873ZM597.153 38.14C597.153 39.18 596.933 40.16 596.493 41.08C596.093 41.96 595.533 42.76 594.813 43.48C594.133 44.16 593.313 44.7 592.353 45.1C591.433 45.5 590.453 45.7 589.413 45.7C588.373 45.7 587.393 45.5 586.473 45.1C585.593 44.7 584.813 44.16 584.133 43.48C583.453 42.76 582.913 41.96 582.513 41.08C582.113 40.16 581.913 39.18 581.913 38.14C581.913 37.1 582.113 36.12 582.513 35.2C582.913 34.24 583.453 33.42 584.133 32.74C584.813 32.02 585.593 31.46 586.473 31.06C587.393 30.66 588.373 30.46 589.413 30.46C590.453 30.46 591.433 30.66 592.353 31.06C593.313 31.46 594.133 32.02 594.813 32.74C595.533 33.42 596.093 34.24 596.493 35.2C596.933 36.12 597.153 37.1 597.153 38.14ZM665.821 67.24C665.341 68.12 664.601 68.56 663.601 68.56C663.001 68.56 662.321 68.34 661.561 67.9C660.801 67.46 659.861 66.98 658.741 66.46C657.661 65.9 656.361 65.4 654.841 64.96C653.321 64.48 651.521 64.24 649.441 64.24C647.641 64.24 646.021 64.48 644.581 64.96C643.141 65.4 641.901 66.02 640.861 66.82C639.861 67.62 639.081 68.56 638.521 69.64C638.001 70.68 637.741 71.82 637.741 73.06C637.741 74.62 638.181 75.92 639.061 76.96C639.981 78 641.181 78.9 642.661 79.66C644.141 80.42 645.821 81.1 647.701 81.7C649.581 82.26 651.501 82.88 653.461 83.56C655.461 84.2 657.401 84.92 659.281 85.72C661.161 86.52 662.841 87.52 664.321 88.72C665.801 89.92 666.981 91.4 667.861 93.16C668.781 94.88 669.241 96.96 669.241 99.4C669.241 102.2 668.741 104.8 667.741 107.2C666.741 109.56 665.261 111.62 663.301 113.38C661.341 115.1 658.941 116.46 656.101 117.46C653.261 118.46 649.981 118.96 646.261 118.96C642.021 118.96 638.181 118.28 634.741 116.92C631.301 115.52 628.381 113.74 625.981 111.58L628.501 107.5C628.821 106.98 629.201 106.58 629.641 106.3C630.081 106.02 630.641 105.88 631.321 105.88C632.041 105.88 632.801 106.16 633.601 106.72C634.401 107.28 635.361 107.9 636.481 108.58C637.641 109.26 639.041 109.88 640.681 110.44C642.321 111 644.361 111.28 646.801 111.28C648.881 111.28 650.701 111.02 652.261 110.5C653.821 109.94 655.121 109.2 656.161 108.28C657.201 107.36 657.961 106.3 658.441 105.1C658.961 103.9 659.221 102.62 659.221 101.26C659.221 99.58 658.761 98.2 657.841 97.12C656.961 96 655.781 95.06 654.301 94.3C652.821 93.5 651.121 92.82 649.201 92.26C647.321 91.66 645.381 91.04 643.381 90.4C641.421 89.76 639.481 89.04 637.561 88.24C635.681 87.4 634.001 86.36 632.521 85.12C631.041 83.88 629.841 82.36 628.921 80.56C628.041 78.72 627.601 76.5 627.601 73.9C627.601 71.58 628.081 69.36 629.041 67.24C630.001 65.08 631.401 63.2 633.241 61.6C635.081 59.96 637.341 58.66 640.021 57.7C642.701 56.74 645.761 56.26 649.201 56.26C653.201 56.26 656.781 56.9 659.941 58.18C663.141 59.42 665.901 61.14 668.221 63.34L665.821 67.24ZM718.995 118.96C714.195 118.96 710.495 117.62 707.895 114.94C705.335 112.26 704.055 108.4 704.055 103.36V66.16H696.735C696.095 66.16 695.555 65.98 695.115 65.62C694.675 65.22 694.455 64.62 694.455 63.82V59.56L704.415 58.3L706.875 39.52C706.995 38.92 707.255 38.44 707.655 38.08C708.095 37.68 708.655 37.48 709.335 37.48H714.735V58.42H732.315V66.16H714.735V102.64C714.735 105.2 715.355 107.1 716.595 108.34C717.835 109.58 719.435 110.2 721.395 110.2C722.515 110.2 723.475 110.06 724.275 109.78C725.115 109.46 725.835 109.12 726.435 108.76C727.035 108.4 727.535 108.08 727.935 107.8C728.375 107.48 728.755 107.32 729.075 107.32C729.635 107.32 730.135 107.66 730.575 108.34L733.695 113.44C731.855 115.16 729.635 116.52 727.035 117.52C724.435 118.48 721.755 118.96 718.995 118.96Z" fill="black"/>
<path d="M60 20C26.9166 20 0 46.9166 0 80C0 113.083 26.9166 140 60 140C93.0834 140 120 113.083 120 80C120 46.9166 93.0834 20 60 20Z" fill="#303C42"/>
<path d="M59.9999 25C88.4784 25 111.964 46.7587 114.723 74.5232C110.653 75.4244 100.316 77.3071 84.745 77.4782C83.4597 64.8913 72.9203 54.9998 59.9999 54.9998C47.0795 54.9998 36.5402 64.8911 35.2548 77.4782C19.6834 77.3071 9.34656 75.4244 5.27734 74.5232C8.03547 46.7589 31.5215 25 59.9999 25Z" fill="#E53935"/>
<path d="M59.9999 99.9998C71.0456 99.9998 79.9998 91.0456 79.9998 79.9999C79.9998 68.9543 71.0456 60 59.9999 60C48.9543 60 40 68.9543 40 79.9999C40 91.0456 48.9543 99.9998 59.9999 99.9998Z" fill="#455A64"/>
<path d="M60.0001 135C29.6729 135 5 110.327 5 79.9998C5 79.8602 5.02016 79.7254 5.02109 79.5859C9.78125 80.5994 20.0736 82.2923 35.2484 82.4573C36.504 95.0753 47.0574 105 60.0001 105C72.9427 105 83.4962 95.0753 84.7517 82.4573C99.9266 82.2923 110.219 80.5994 114.979 79.5859C114.98 79.7254 115 79.8599 115 79.9998C115 110.327 90.3273 135 60.0001 135Z" fill="white"/>
<path d="M60 95C68.2843 95 75 88.2843 75 80C75 71.7157 68.2843 65 60 65C51.7157 65 45 71.7157 45 80C45 88.2843 51.7157 95 60 95Z" fill="#303C42"/>
<path d="M60.0001 90.0002C65.523 90.0002 70.0002 85.523 70.0002 80.0001C70.0002 74.4772 65.523 70 60.0001 70C54.4772 70 50 74.4772 50 80.0001C50 85.523 54.4772 90.0002 60.0001 90.0002Z" fill="#F2F2F2"/>
<path opacity="0.2" d="M51.9791 83.0207C51.9791 77.5056 56.4638 73.0206 61.9792 73.0206C64.842 73.0206 67.4094 74.245 69.234 76.1788C67.7298 72.5563 64.1614 70 60.0001 70C54.485 70 50 74.4848 50 80.0001C50 82.6523 51.0549 85.0504 52.745 86.8417C52.2556 85.6633 51.9791 84.3744 51.9791 83.0207Z" fill="white"/>
<path d="M60 20C26.9166 20 0 46.9166 0 80C0 113.083 26.9166 140 60 140C93.0834 140 120 113.083 120 80C120 46.9166 93.0834 20 60 20Z" fill="url(#paint0_linear)"/>
<path opacity="0.1" d="M104.833 116.504C109.766 115.905 113.313 115.223 115.32 114.778C113.96 101.092 107.548 88.8807 98 80C102.796 88.1595 105.597 97.6259 105.597 107.755C105.597 110.739 105.293 113.648 104.833 116.504Z" fill="black"/>
<path opacity="0.1" d="M114.979 79.5859C112.508 80.1121 108.514 80.818 103.151 81.4016C96.9682 105.007 75.5168 122.5 50.0002 122.5C35.5184 122.5 22.3655 116.831 12.5332 107.65C22.0823 123.977 39.7584 135 60.0002 135C90.3274 135 115 110.327 115 79.9998C115 79.8602 114.98 79.7254 114.979 79.5859Z" fill="black"/>
<defs>
<linearGradient id="paint0_linear" x1="5.624" y1="54.652" x2="114.377" y2="105.358" gradientUnits="userSpaceOnUse">
<stop stop-color="white" stop-opacity="0.2"/>
<stop offset="1" stop-color="white" stop-opacity="0"/>
</linearGradient>
</defs>
</svg>
